<?xml version="1.0" encoding="utf-8"?>
<!-- Svg Vector Icons : http://www.onlinewebfonts.com/icon -->
<!DOCTYPE svg PUBLIC "-//W3C//DTD SVG 1.1//EN" "http://www.w3.org/Graphics/SVG/1.1/DTD/svg11.dtd">
<svg version="1.1" xmlns="http://www.w3.org/2000/svg" xmlns:xlink="http://www.w3.org/1999/xlink" x="0px" y="0px" viewBox="0 0 1000 1000" enable-background="new 0 0 1000 1000" xml:space="preserve">
<metadata> Svg Vector Icons : http://www.onlinewebfonts.com/icon </metadata>
<g><g transform="translate(0.000000,344.000000) scale(0.100000,-0.100000)"><path d="M2247.3,1766.9c-433.8-64.2-661.3-252.9-941.5-780c-177-336.5-338.5-710-451.3-1040.7C658.1-639.2,376-1851.1,226.3-2757.5C51.2-3813.7,55.1-4037.4,257.4-4379.8c221.7-373.5,649.7-589.4,994-499.9c322.9,81.7,713.9,352.1,1186.5,817l179,177l54.5-35c408.5-266.5,842.3-264.6,1196.3,3.9c235.4,177,369.6,412.4,408.5,717.8l21.4,159.5h694.4h692.5l11.7-132.3c46.7-498,424-885,920-949.2c198.4-25.3,507.7,64.2,680.8,196.5l60.3,46.7l280.1-276.2c311.2-307.4,562.2-496,824.8-626.3c227.6-110.9,367.6-138.1,554.4-107c369.6,62.3,696.4,356,822.8,739.2c89.5,270.4,89.5,278.2-62.3,945.3c-356,1577.5-653.6,2711.5-877.2,3363.1c-103.1,295.7-315.1,770.3-439.6,982.3c-122.6,210.1-322.9,424-470.7,501.8c-217.9,116.7-542.7,159.5-918.1,122.5c-507.7-50.6-801.4-171.2-1167.1-478.5c-348.2-291.8-282-272.3-923.9-272.3c-641.9,0-575.8-19.5-1025.1,282c-159.5,107-330.7,215.9-381.2,241.2c-142,72-414.3,161.4-581.6,194.5C2803.6,1768.8,2391.2,1788.3,2247.3,1766.9z M3042.8,1416.8c233.4-60.3,435.7-161.4,780-392.9c311.2-210.1,451.3-276.2,651.6-309.3c149.8-25.3,879.2-25.3,1029,0c167.3,27.2,332.6,112.8,505.7,264.5c437.7,383.2,647.7,468.8,1202.1,488.2c470.7,17.5,645.8-35,830.6-241.2c202.3-225.6,472.7-824.7,688.6-1523c180.9-583.5,478.5-1756.4,745-2941c62.2-274.3,118.7-496,124.5-492.1c21.4,13.6-17.5-293.7-46.7-379.3c-79.7-221.7-287.9-416.3-499.9-466.8c-147.8-37-319-15.6-468.8,56.4c-293.7,138.1-752.8,525.2-972.6,815l-142,188.7l42.8,116.7c56.4,157.5,60.3,387.1,5.8,546.6c-165.3,482.4-715.8,719.7-1163.2,501.8c-122.5-60.3-311.2-229.5-363.7-326.8c-23.3-42.8-48.6-66.1-64.2-60.3s-443.5,9.7-953.1,11.7h-927.8l-83.6,116.7c-52.5,73.9-124.5,144-200.4,192.6c-272.3,175.1-548.5,196.5-834.5,62.3c-124.5-58.4-326.8-249-387.1-369.6c-108.9-214-124.5-466.8-40.8-692.5l42.8-112.8l-210.1-214c-418.2-422.1-785.8-711.9-1025.1-809.2c-99.2-38.9-142-46.7-258.7-38.9c-387.1,25.3-649.7,346.2-649.7,797.5c0,566,412.4,2637.6,710,3553.8c107,328.7,214,589.4,400.7,960.9c249,499.9,383.2,651.6,639.9,723.6C2307.6,1486.8,2821.1,1471.2,3042.8,1416.8z M3589.4-2477.4c278.1-128.4,402.6-356,385.1-698.3c-17.5-303.5-198.4-529.1-494.1-614.7c-336.5-97.3-723.6,89.5-842.2,410.4c-56.4,147.8-56.4,377.3,0,523.2c66.1,180.9,245.1,352.1,431.8,412.4C3200.4-2401.5,3459.1-2419.1,3589.4-2477.4z M6927.3-2446.3c217.9-64.2,385.1-229.5,455.2-455.2c48.6-155.6,48.6-276.2,0-433.8c-31.1-99.2-60.3-145.9-153.7-243.1c-147.8-151.7-287.9-221.8-466.8-235.4c-371.5-25.3-682.7,219.8-741.1,583.5c-23.3,151.7,2,311.2,68.1,443.5c44.7,89.5,196.4,245.1,284,291.8C6516.8-2415.2,6756.1-2395.7,6927.3-2446.3z"/><path d="M6944.8,669.8c-50.6-11.7-110.9-54.5-177-120.6c-81.7-81.7-105-118.7-124.5-208.1c-99.2-443.5,455.2-743,760.5-410.4c87.5,93.4,122.6,180.9,122.6,307.3c0,142-50.6,249-163.4,346.2C7244.3,685.4,7106.2,712.6,6944.8,669.8z"/><path d="M2482.6,175.8c-37-33.1-40.8-58.3-44.7-317.1l-5.8-282l-272.3-3.9c-344.3-3.9-340.4,0-340.4-287.9c0-289.8-3.9-285.9,342.3-289.8l270.4-1.9l5.8-272.3c5.8-346.2,0-340.4,295.7-340.4s289.8-5.8,295.7,340.4l5.8,272.3l272.3,3.9c344.3,3.9,340.4,0,340.4,287.9s3.9,284-340.4,287.9l-272.3,3.9l-5.8,282c-5.8,357.9,1.9,350.1-295.7,350.1C2562.4,208.8,2515.7,203,2482.6,175.8z"/><path d="M6195.9-100.4c-247-75.9-387.1-309.3-330.7-546.6c33.1-138.1,112.8-239.3,241.2-301.5c93.4-44.7,126.4-52.5,235.4-44.7c147.8,9.7,254.8,72,348.2,206.2c46.7,66.1,60.3,108.9,66.1,208.1c15.6,223.7-108.9,404.6-319,468.8C6337.9-81,6271.8-77.1,6195.9-100.4z"/><path d="M7752-100.4c-247-75.9-387.1-309.3-330.7-546.6c33.1-138.1,112.8-239.3,241.2-301.5c93.4-44.7,126.4-52.5,235.4-44.7c147.8,9.7,254.8,72,348.2,206.2c46.7,66.1,60.3,108.9,66.1,208.1c15.6,223.7-108.9,404.6-319,468.8C7894-81,7827.9-77.1,7752-100.4z"/><path d="M6973.9-878.5c-247-75.9-387.1-309.3-330.7-546.6c33.1-138.1,112.8-239.2,241.2-301.5c93.4-44.7,126.4-52.5,235.4-44.7c147.8,9.7,254.8,72,348.2,206.2c46.7,66.1,60.3,108.9,66.1,208.1c15.6,223.7-108.9,404.6-319,468.8C7115.9-859,7049.8-855.2,6973.9-878.5z"/></g></g>
</svg>